<svg width="796" height="554" viewBox="0 0 796 554" fill="none" xmlns="http://www.w3.org/2000/svg">
<mask id="mask0_777_1199" style="mask-type:alpha" maskUnits="userSpaceOnUse" x="1" y="1" width="793" height="551">
<rect x="10.5665" y="62.3607" width="742.5" height="481.8" rx="13.2" transform="rotate(-4 10.5665 62.3607)" fill="#EEEEEE" stroke="white" stroke-width="19.8"/>
</mask>
<g mask="url(#mask0_777_1199)">
<rect x="10.5665" y="62.3607" width="742.5" height="481.8" rx="13.2" transform="rotate(-4 10.5665 62.3607)" fill="#EEEEEE" stroke="white" stroke-width="19.8"/>
<path d="M300.26 515.156L217.132 367.144L45.3058 417.202L43.4642 390.866L231.405 334.719L315.929 217.989L181.141 65.3194L212.414 63.1326L332.329 195.34L439.56 47.249L465.895 45.4075L356.56 205.224L410.949 254.349L467.449 185.891L483.068 196.377L428.698 270.38L545.223 375.628L523.561 396.991L339.922 229.543L247.224 365.04L328.241 513.199L300.26 515.156Z" fill="#D9D9D9"/>
<path d="M708.74 301.341L599.276 391.697L615.471 410.413L760.936 290.868L758.865 261.24L727.456 285.146L604.445 158.117L584.313 177.719L708.74 301.341Z" fill="#D9D9D9"/>
<path d="M391.498 174.477C429.068 174.477 459.525 204.933 459.525 242.504C459.525 255.813 455.703 268.229 449.097 278.715L400.334 375.241C396.672 382.489 386.323 382.489 382.661 375.241L333.894 278.707C327.291 268.223 323.47 255.809 323.47 242.504C323.47 204.933 353.927 174.477 391.498 174.477ZM391.499 205.656C371.148 205.656 354.65 222.154 354.65 242.505C354.651 262.855 371.148 279.352 391.499 279.352C411.85 279.352 428.347 262.855 428.348 242.505C428.348 222.154 411.85 205.656 391.499 205.656Z" fill="url(#paint0_linear_777_1199)"/>
<rect x="10.5665" y="62.3607" width="742.5" height="481.8" rx="13.2" transform="rotate(-4 10.5665 62.3607)" stroke="white" stroke-width="19.8"/>
<path d="M641.767 356.29C641.767 356.29 536.326 339.403 509.097 343.062C481.867 346.72 483.098 403.973 512.351 409.363C541.605 414.753 644.993 376.661 644.993 376.661L641.767 356.29Z" fill="#FFAC00"/>
<path d="M776.497 216.331C776.497 216.331 869.983 267.94 889.187 287.587C908.392 307.234 872.174 351.592 845.803 337.829C819.433 324.067 761.413 230.397 761.413 230.397L776.497 216.331Z" fill="#FFAC00"/>
<path d="M763.181 502.364C749.241 491.402 648.407 406.615 590.813 345.124L772.357 213.225C772.357 213.225 874.779 390.69 878.523 426.721C882.266 462.752 861.456 474.813 832.47 460.181L807.123 444.944L812.207 468.784C824.369 510.203 796.786 528.789 763.181 502.364Z" fill="#FFA11D"/>
<path d="M736.058 434.16C700.111 425.394 610.237 315.716 610.237 315.716L739.72 221.641C739.72 221.641 821.046 341.785 821.295 372.231C821.545 402.678 772.005 442.926 736.058 434.16Z" fill="#FBD485"/>
<path d="M595.513 155.094C609.759 144.743 625.347 136.532 641.387 130.929C657.427 125.327 673.605 122.443 688.996 122.442C704.387 122.441 718.69 125.324 731.089 130.925C739.09 134.539 746.195 139.241 752.25 144.902C757.241 148.991 761.797 153.778 765.767 159.243C790.753 193.634 783.13 241.769 748.739 266.756C729.874 280.461 706.874 284.354 685.828 279.4C684.036 300.948 673.226 321.62 654.362 335.326C619.97 360.312 571.835 352.688 546.849 318.297C542.884 312.841 539.742 307.038 537.396 301.037C533.877 293.521 531.597 285.302 530.631 276.566C529.136 263.043 530.815 248.549 535.572 233.911C540.328 219.274 548.071 204.779 558.355 191.255C568.64 177.732 581.266 165.444 595.513 155.094Z" fill="url(#paint1_linear_777_1199)"/>
<ellipse cx="714.717" cy="220.634" rx="19.965" ry="29.04" transform="rotate(-36 714.717 220.634)" fill="white"/>
<ellipse cx="613.268" cy="294.342" rx="19.965" ry="29.04" transform="rotate(-36 613.268 294.342)" fill="white"/>
<ellipse cx="714.917" cy="220.488" rx="13.2" ry="19.8" transform="rotate(-36 714.917 220.488)" fill="black"/>
<ellipse cx="613.468" cy="294.197" rx="13.2" ry="19.8" transform="rotate(-36 613.468 294.197)" fill="black"/>
<path d="M547.572 145.056L595.627 110.142C623.31 90.2108 631.505 134.631 649.939 184.895C625.53 190.767 614.395 197.564 601.883 219.809C560.274 184.168 526.906 161.011 547.572 145.056Z" fill="#AD00FF"/>
<path d="M759.197 256.437C772.314 267.038 806.704 283.528 839.325 264.684" stroke="#AD00FF" stroke-width="18.15"/>
<path d="M644.74 339.595C652.643 354.494 662.268 391.398 637.547 419.824" stroke="#AD00FF" stroke-width="18.15"/>
</g>
<defs>
<linearGradient id="paint0_linear_777_1199" x1="391.498" y1="174.477" x2="391.498" y2="380.677" gradientUnits="userSpaceOnUse">
<stop stop-color="#AD00FF"/>
<stop offset="1" stop-color="#470099"/>
</linearGradient>
<linearGradient id="paint1_linear_777_1199" x1="595.513" y1="155.093" x2="701.55" y2="301.041" gradientUnits="userSpaceOnUse">
<stop stop-color="#FFBA2C"/>
<stop offset="1" stop-color="#FFAC00"/>
</linearGradient>
</defs>
</svg>
