<svg width="531" height="370" viewBox="0 0 531 370" fill="none" xmlns="http://www.w3.org/2000/svg">
<mask id="mask0_777_1135" style="mask-type:alpha" maskUnits="userSpaceOnUse" x="1" y="1" width="529" height="367">
<rect x="7.04432" y="41.5738" width="495" height="321.2" rx="8.8" transform="rotate(-4 7.04432 41.5738)" fill="#EEEEEE" stroke="white" stroke-width="13.2"/>
</mask>
<g mask="url(#mask0_777_1135)">
<rect x="7.04432" y="41.5738" width="495" height="321.2" rx="8.8" transform="rotate(-4 7.04432 41.5738)" fill="#EEEEEE" stroke="white" stroke-width="13.2"/>
<path d="M200.173 343.437L144.755 244.763L30.2039 278.135L28.9761 260.578L154.27 223.146L210.619 145.326L120.76 43.5463L141.609 42.0884L221.552 130.227L293.04 31.4993L310.597 30.2716L237.707 136.816L273.966 169.566L311.632 123.928L322.045 130.918L285.799 180.253L363.482 250.419L349.041 264.661L226.615 153.029L164.816 243.36L218.828 342.133L200.173 343.437Z" fill="#D9D9D9"/>
<path d="M472.493 200.894L399.517 261.131L410.314 273.608L507.291 193.912L505.91 174.16L484.971 190.097L402.963 105.412L389.542 118.48L472.493 200.894Z" fill="#D9D9D9"/>
<path d="M260.998 116.318C286.045 116.318 306.35 136.622 306.351 161.669C306.351 170.531 303.805 178.797 299.411 185.783L266.89 250.16C264.449 254.992 257.548 254.992 255.107 250.16L222.589 185.79C218.192 178.804 215.646 170.534 215.646 161.669C215.647 136.622 235.951 116.318 260.998 116.318ZM260.999 137.104C247.432 137.104 236.434 148.102 236.434 161.669C236.434 175.236 247.432 186.235 260.999 186.236C274.566 186.236 285.564 175.236 285.564 161.669C285.564 148.102 274.566 137.104 260.999 137.104Z" fill="url(#paint0_linear_777_1135)"/>
<rect x="7.04432" y="41.5738" width="495" height="321.2" rx="8.8" transform="rotate(-4 7.04432 41.5738)" stroke="white" stroke-width="13.2"/>
<path d="M427.844 237.527C427.844 237.527 357.55 226.269 339.397 228.708C321.244 231.147 322.065 269.315 341.567 272.909C361.069 276.502 429.995 251.107 429.995 251.107L427.844 237.527Z" fill="#FFAC00"/>
<path d="M517.664 144.22C517.664 144.22 579.988 178.627 592.791 191.725C605.594 204.822 581.448 234.395 563.868 225.22C546.288 216.044 507.608 153.598 507.608 153.598L517.664 144.22Z" fill="#FFAC00"/>
<path d="M508.787 334.909C499.493 327.601 432.27 271.077 393.875 230.083L514.904 142.15C514.904 142.15 583.186 260.46 585.681 284.481C588.177 308.501 574.303 316.542 554.979 306.787L538.081 296.63L541.47 312.523C549.579 340.135 531.19 352.526 508.787 334.909Z" fill="#FFA11D"/>
<path d="M490.704 289.44C466.74 283.596 406.824 210.477 406.824 210.477L493.146 147.76C493.146 147.76 547.363 227.857 547.53 248.154C547.696 268.452 514.669 295.284 490.704 289.44Z" fill="#FBD485"/>
<path d="M397.009 103.396C406.507 96.4951 416.899 91.021 427.592 87.2862C438.285 83.5513 449.07 81.6287 459.33 81.6281C469.591 81.6276 479.127 83.5492 487.393 87.283C492.728 89.6929 497.466 92.8287 501.504 96.6037C504.83 99.3294 507.866 102.52 510.512 106.162C527.17 129.089 522.086 161.179 499.159 177.837C486.582 186.974 471.249 189.569 457.218 186.266C456.023 200.631 448.818 214.413 436.241 223.551C413.314 240.208 381.224 235.126 364.566 212.198C361.922 208.559 359.826 204.689 358.261 200.686C355.917 195.677 354.398 190.199 353.754 184.377C352.757 175.362 353.876 165.699 357.047 155.941C360.219 146.183 365.38 136.52 372.236 127.504C379.093 118.488 387.511 110.296 397.009 103.396Z" fill="url(#paint1_linear_777_1135)"/>
<ellipse cx="476.478" cy="147.089" rx="13.31" ry="19.36" transform="rotate(-36 476.478 147.089)" fill="white"/>
<ellipse cx="408.845" cy="196.228" rx="13.31" ry="19.36" transform="rotate(-36 408.845 196.228)" fill="white"/>
<ellipse cx="476.611" cy="146.992" rx="8.8" ry="13.2" transform="rotate(-36 476.611 146.992)" fill="black"/>
<ellipse cx="408.978" cy="196.131" rx="8.8" ry="13.2" transform="rotate(-36 408.978 196.131)" fill="black"/>
<path d="M365.047 96.7041L397.084 73.4278C415.539 60.1405 421.003 89.7543 433.292 123.263C417.019 127.178 409.596 131.709 401.255 146.54C373.515 122.778 351.27 107.341 365.047 96.7041Z" fill="#AD00FF"/>
<path d="M506.131 170.958C514.876 178.025 537.802 189.018 559.549 176.456" stroke="#AD00FF" stroke-width="12.1"/>
<path d="M429.826 226.397C435.095 236.329 441.511 260.932 425.03 279.882" stroke="#AD00FF" stroke-width="12.1"/>
</g>
<defs>
<linearGradient id="paint0_linear_777_1135" x1="260.999" y1="116.318" x2="260.999" y2="253.784" gradientUnits="userSpaceOnUse">
<stop stop-color="#AD00FF"/>
<stop offset="1" stop-color="#470099"/>
</linearGradient>
<linearGradient id="paint1_linear_777_1135" x1="397.009" y1="103.395" x2="467.701" y2="200.694" gradientUnits="userSpaceOnUse">
<stop stop-color="#FFBA2C"/>
<stop offset="1" stop-color="#FFAC00"/>
</linearGradient>
</defs>
</svg>
