<svg width="266" height="185" viewBox="0 0 266 185" fill="none" xmlns="http://www.w3.org/2000/svg">
<mask id="mask0_771_1576" style="mask-type:alpha" maskUnits="userSpaceOnUse" x="0" y="0" width="265" height="184">
<rect x="3.52216" y="20.7869" width="247.5" height="160.6" rx="4.4" transform="rotate(-4 3.52216 20.7869)" fill="#EEEEEE" stroke="white" stroke-width="6.6"/>
</mask>
<g mask="url(#mask0_771_1576)">
<rect x="3.52216" y="20.7869" width="247.5" height="160.6" rx="4.4" transform="rotate(-4 3.52216 20.7869)" fill="#EEEEEE" stroke="white" stroke-width="6.6"/>
<path d="M100.086 171.719L72.377 122.381L15.1014 139.067L14.4876 130.289L77.1347 111.573L105.309 72.663L60.3797 21.7731L70.8043 21.0442L110.776 65.1133L146.519 15.7497L155.298 15.1358L118.853 68.4079L136.983 84.7831L155.816 61.9638L161.022 65.4591L142.899 90.1267L181.741 125.209L174.52 132.33L113.307 76.5145L82.4076 121.68L109.413 171.066L100.086 171.719Z" fill="#D9D9D9"/>
<path d="M236.246 100.447L199.758 130.566L205.157 136.804L253.645 96.956L252.954 87.0802L242.485 95.0486L201.481 52.7058L194.771 59.2398L236.246 100.447Z" fill="#D9D9D9"/>
<path d="M130.499 58.1588C143.022 58.1588 153.174 68.3111 153.174 80.8346C153.174 85.2659 151.902 89.3994 149.705 92.8922L133.445 125.081C132.224 127.496 128.774 127.496 127.553 125.081L111.291 92.8903C109.094 89.398 107.823 85.2649 107.823 80.8346C107.823 68.3112 117.975 58.1589 130.499 58.1588ZM130.499 68.5524C123.715 68.5525 118.216 74.0511 118.216 80.8346C118.216 87.6182 123.715 93.1178 130.499 93.1178C137.282 93.1178 142.782 87.6182 142.782 80.8346C142.782 74.0511 137.282 68.5524 130.499 68.5524Z" fill="url(#paint0_linear_771_1576)"/>
<rect x="3.52216" y="20.7869" width="247.5" height="160.6" rx="4.4" transform="rotate(-4 3.52216 20.7869)" stroke="white" stroke-width="6.6"/>
<path d="M213.922 118.763C213.922 118.763 178.775 113.134 169.699 114.354C160.622 115.573 161.032 134.658 170.783 136.454C180.535 138.251 214.997 125.554 214.997 125.554L213.922 118.763Z" fill="#FFAC00"/>
<path d="M258.832 72.1102C258.832 72.1102 289.994 89.3133 296.395 95.8623C302.797 102.411 290.724 117.197 281.934 112.61C273.144 108.022 253.804 76.7989 253.804 76.7989L258.832 72.1102Z" fill="#FFAC00"/>
<path d="M254.393 167.455C249.747 163.801 216.135 135.538 196.938 115.041L257.452 71.075C257.452 71.075 291.593 130.23 292.841 142.24C294.088 154.251 287.152 158.271 277.49 153.394L269.041 148.315L270.735 156.261C274.789 170.068 265.595 176.263 254.393 167.455Z" fill="#FFA11D"/>
<path d="M245.351 144.72C233.369 141.798 203.411 105.239 203.411 105.239L246.572 73.8802C246.572 73.8802 273.681 113.928 273.764 124.077C273.847 134.226 257.334 147.642 245.351 144.72Z" fill="#FBD485"/>
<path d="M198.505 51.6975C203.254 48.2473 208.45 45.5101 213.796 43.6428C219.143 41.7754 224.535 40.8143 229.665 40.814C234.795 40.8137 239.563 41.7749 243.696 43.6418C246.356 44.843 248.716 46.4065 250.73 48.2859C252.402 49.6524 253.927 51.2523 255.256 53.0807C263.585 64.5444 261.043 80.5899 249.58 88.9188C243.291 93.4875 235.624 94.7849 228.608 93.1333C228.011 100.316 224.409 107.207 218.12 111.775C206.657 120.104 190.611 117.563 182.282 106.099C180.954 104.271 179.903 102.326 179.12 100.314C177.955 97.8172 177.198 95.0888 176.878 92.1886C176.379 87.681 176.938 82.8494 178.524 77.9702C180.11 73.0912 182.69 68.2598 186.118 63.752C189.546 59.2442 193.756 55.1478 198.505 51.6975Z" fill="url(#paint1_linear_771_1576)"/>
<ellipse cx="238.239" cy="73.5446" rx="6.655" ry="9.68" transform="rotate(-36 238.239 73.5446)" fill="white"/>
<ellipse cx="204.422" cy="98.1141" rx="6.655" ry="9.68" transform="rotate(-36 204.422 98.1141)" fill="white"/>
<ellipse cx="238.305" cy="73.4961" rx="4.4" ry="6.6" transform="rotate(-36 238.305 73.4961)" fill="black"/>
<ellipse cx="204.489" cy="98.0655" rx="4.4" ry="6.6" transform="rotate(-36 204.489 98.0655)" fill="black"/>
<path d="M182.524 48.3522L198.542 36.714C207.77 30.0704 210.501 44.8773 216.646 61.6317C208.51 63.5891 204.798 65.8546 200.627 73.2699C186.758 61.3893 175.635 53.6706 182.524 48.3522Z" fill="#AD00FF"/>
<path d="M253.065 85.4791C257.438 89.0126 268.901 94.5092 279.775 88.2281" stroke="#AD00FF" stroke-width="6.05"/>
<path d="M214.913 113.198C217.547 118.165 220.756 130.466 212.515 139.941" stroke="#AD00FF" stroke-width="6.05"/>
</g>
<defs>
<linearGradient id="paint0_linear_771_1576" x1="130.498" y1="58.1588" x2="130.498" y2="126.892" gradientUnits="userSpaceOnUse">
<stop stop-color="#AD00FF"/>
<stop offset="1" stop-color="#470099"/>
</linearGradient>
<linearGradient id="paint1_linear_771_1576" x1="198.504" y1="51.6978" x2="233.85" y2="100.347" gradientUnits="userSpaceOnUse">
<stop stop-color="#FFBA2C"/>
<stop offset="1" stop-color="#FFAC00"/>
</linearGradient>
</defs>
</svg>
