<svg width="72" height="99" viewBox="0 0 72 99" fill="none" xmlns="http://www.w3.org/2000/svg">
<g clip-path="url(#clip0_1989_2725)">
<mask id="mask0_1989_2725" style="mask-type:alpha" maskUnits="userSpaceOnUse" x="0" y="1" width="72" height="98">
<path d="M33.7627 2.42823L0.737533 94.2386C0.131346 95.9238 1.87557 97.4951 3.48857 96.7168L36.8686 80.6117C37.4623 80.3253 38.1589 80.3497 38.731 80.6771L68.8164 97.8932C70.4362 98.8201 72.3304 97.2198 71.6872 95.468L37.5221 2.41586C36.8782 0.662166 34.395 0.670335 33.7627 2.42823Z" fill="#AD00FF"/>
</mask>
<g mask="url(#mask0_1989_2725)">
<path d="M33.851 2.45082L1.1075 94.1712C0.505754 95.8568 2.25141 97.4236 3.86242 96.6438L37.0289 80.5907C37.6247 80.3023 38.3246 80.3274 38.8983 80.6577L68.8123 97.8822C70.4313 98.8143 72.3308 97.2152 71.6883 95.461L37.6125 2.43533C36.9689 0.678195 34.4801 0.688446 33.851 2.45082Z" fill="url(#paint0_linear_1989_2725)"/>
<path d="M33.851 2.45082L1.1075 94.1712C0.505754 95.8568 2.25141 97.4236 3.86242 96.6438L37.0289 80.5907C37.6247 80.3023 38.3246 80.3274 38.8983 80.6577L68.8123 97.8822C70.4313 98.8143 72.3308 97.2152 71.6883 95.461L37.6125 2.43533C36.9689 0.678195 34.4801 0.688446 33.851 2.45082Z" fill="url(#paint1_linear_1989_2725)"/>
<path d="M33.851 2.45082L1.1075 94.1712C0.505754 95.8568 2.25141 97.4236 3.86242 96.6438L37.0289 80.5907C37.6247 80.3023 38.3246 80.3274 38.8983 80.6577L68.8123 97.8822C70.4313 98.8143 72.3308 97.2152 71.6883 95.461L37.6125 2.43533C36.9689 0.678195 34.4801 0.688446 33.851 2.45082Z" fill="url(#paint2_linear_1989_2725)"/>
<path d="M12.3277 84.817L36.9123 71.9998C37.1637 71.8687 37.4657 71.8805 37.7061 72.0308L59.9194 85.9152C60.5675 86.3202 61.3603 85.6728 61.0929 84.9569L36.3603 18.7297C36.1 18.0329 35.1129 18.0373 34.8589 18.7364L11.2059 83.8344C10.9567 84.5202 11.6806 85.1543 12.3277 84.817Z" fill="#C64DFF"/>
<mask id="mask1_1989_2725" style="mask-type:alpha" maskUnits="userSpaceOnUse" x="11" y="18" width="51" height="69">
<path d="M12.3277 84.8194L36.9123 72.0023C37.1637 71.8712 37.4657 71.883 37.7061 72.0333L59.9194 85.9176C60.5675 86.3227 61.3603 85.6753 61.0929 84.9593L36.3603 18.7322C36.1 18.0354 35.1129 18.0398 34.8589 18.7389L11.2059 83.8368C10.9567 84.5227 11.6806 85.1567 12.3277 84.8194Z" fill="#C64DFF"/>
</mask>
<g mask="url(#mask1_1989_2725)">
<g filter="url(#filter0_i_1989_2725)">
<path d="M12.3277 84.8194L36.9123 72.0023C37.1637 71.8712 37.4657 71.883 37.7061 72.0333L59.9194 85.9176C60.5675 86.3227 61.3603 85.6753 61.0929 84.9593L36.3603 18.7322C36.1 18.0354 35.1129 18.0398 34.8589 18.7389L11.2059 83.8368C10.9567 84.5227 11.6806 85.1567 12.3277 84.8194Z" fill="url(#paint3_linear_1989_2725)"/>
</g>
<g filter="url(#filter1_i_1989_2725)">
<path d="M37.0696 72.238L35.3483 16.7513L62.5571 88.2569L37.0696 72.238Z" fill="url(#paint4_linear_1989_2725)"/>
</g>
</g>
</g>
</g>
<defs>
<filter id="filter0_i_1989_2725" x="10.7553" y="18.2122" width="50.3912" height="67.8306" filterUnits="userSpaceOnUse" color-interpolation-filters="sRGB">
<feFlood flood-opacity="0" result="BackgroundImageFix"/>
<feBlend mode="normal" in="SourceGraphic" in2="BackgroundImageFix" result="shape"/>
<feColorMatrix in="SourceAlpha" type="matrix" values="0 0 0 0 0 0 0 0 0 0 0 0 0 0 0 0 0 0 127 0" result="hardAlpha"/>
<feOffset dx="-0.4"/>
<feGaussianBlur stdDeviation="0.6"/>
<feComposite in2="hardAlpha" operator="arithmetic" k2="-1" k3="1"/>
<feColorMatrix type="matrix" values="0 0 0 0 1 0 0 0 0 1 0 0 0 0 1 0 0 0 0.8 0"/>
<feBlend mode="normal" in2="shape" result="effect1_innerShadow_1989_2725"/>
</filter>
<filter id="filter1_i_1989_2725" x="35.3486" y="16.7512" width="27.608" height="71.5056" filterUnits="userSpaceOnUse" color-interpolation-filters="sRGB">
<feFlood flood-opacity="0" result="BackgroundImageFix"/>
<feBlend mode="normal" in="SourceGraphic" in2="BackgroundImageFix" result="shape"/>
<feColorMatrix in="SourceAlpha" type="matrix" values="0 0 0 0 0 0 0 0 0 0 0 0 0 0 0 0 0 0 127 0" result="hardAlpha"/>
<feOffset dx="0.4"/>
<feGaussianBlur stdDeviation="0.7"/>
<feComposite in2="hardAlpha" operator="arithmetic" k2="-1" k3="1"/>
<feColorMatrix type="matrix" values="0 0 0 0 1 0 0 0 0 1 0 0 0 0 1 0 0 0 0.7 0"/>
<feBlend mode="normal" in2="shape" result="effect1_innerShadow_1989_2725"/>
</filter>
<linearGradient id="paint0_linear_1989_2725" x1="23.8899" y1="86.9095" x2="55.5033" y2="83.7302" gradientUnits="userSpaceOnUse">
<stop stop-color="#AD00FF"/>
<stop offset="1" stop-color="#470099"/>
</linearGradient>
<linearGradient id="paint1_linear_1989_2725" x1="37.2331" y1="51.614" x2="13.788" y2="44.4298" gradientUnits="userSpaceOnUse">
<stop stop-color="#AD00FF" stop-opacity="0"/>
<stop offset="1" stop-color="#140066"/>
</linearGradient>
<linearGradient id="paint2_linear_1989_2725" x1="51.7245" y1="44.4444" x2="41.833" y2="50.5975" gradientUnits="userSpaceOnUse">
<stop stop-color="#AD00FF"/>
<stop offset="1" stop-color="#AD00FF" stop-opacity="0"/>
</linearGradient>
<linearGradient id="paint3_linear_1989_2725" x1="27.2476" y1="50.6312" x2="44.0303" y2="56.279" gradientUnits="userSpaceOnUse">
<stop stop-color="#C64DFF"/>
<stop offset="1" stop-color="#AD00FF"/>
</linearGradient>
<linearGradient id="paint4_linear_1989_2725" x1="36.0779" y1="22.0065" x2="50.835" y2="84.1791" gradientUnits="userSpaceOnUse">
<stop stop-color="#D680FF"/>
<stop offset="1" stop-color="#AD00FF"/>
</linearGradient>
<clipPath id="clip0_1989_2725">
<rect width="72" height="99" fill="white"/>
</clipPath>
</defs>
</svg>
