<svg width="1080" height="1080" viewBox="0 0 1080 1080" fill="none" xmlns="http://www.w3.org/2000/svg">
<g clip-path="url(#clip0_1989_2687)">
<mask id="mask0_1989_2687" style="mask-type:alpha" maskUnits="userSpaceOnUse" x="25" y="795" width="224" height="502">
<path d="M135.297 795.183C135.297 795.183 27.1764 1126 25.0706 1215.52C22.9647 1305.04 207.897 1330.27 240.164 1238.85C272.43 1147.43 202.519 795.183 202.519 795.183L135.297 795.183Z" fill="#FFAC00"/>
</mask>
<g mask="url(#mask0_1989_2687)">
<path d="M135.297 795.183C135.297 795.183 27.1764 1126 25.0706 1215.52C22.9647 1305.04 207.897 1330.27 240.164 1238.85C272.43 1147.43 202.519 795.183 202.519 795.183L135.297 795.183Z" fill="#FFAC00"/>
</g>
<path d="M1045.83 1088.25C1101.28 1066.96 1162.63 1092.41 1182.86 1145.09C1193.65 1173.22 1190.54 1203.41 1176.87 1228.7C1207.95 1237.81 1234.58 1260.81 1247.09 1293.39C1268.38 1348.84 1240.68 1411.06 1185.22 1432.34C1170.29 1438.07 1154.88 1440.25 1139.9 1439.3C1139.1 1439.55 1138.22 1439.62 1137.31 1439.45L1132.88 1438.62C1128.95 1438.11 1125.08 1437.38 1121.25 1436.45L860.71 1387.83C857.052 1387.15 855.176 1383.05 857.052 1379.83L976.194 1175.8C980.562 1138.07 1006.4 1103.38 1045.83 1088.25Z" fill="#FBD485"/>
<path d="M783.597 761.006C783.597 761.006 1058.87 854.339 1121.63 896.347C1184.38 938.354 1121.92 1064.66 1044.82 1040.34C967.719 1016.02 754.557 802.48 754.557 802.48L783.597 761.006Z" fill="url(#paint0_linear_1989_2687)"/>
<path d="M289.799 1504.88C274.041 1449.27 170.591 1032.54 136.532 760.062H867.91C867.91 760.062 797.999 1424.22 738.843 1526.4C679.688 1628.57 601.71 1620.51 553.31 1526.4L515.666 1437.66L483.399 1510.26C436.123 1642.77 327.786 1638.94 289.799 1504.88Z" fill="#FFA11D"/>
<path d="M348.942 1273.08C270.951 1181.1 244.089 719.729 244.089 719.729H765.733C765.733 719.729 750.005 1192.32 692.336 1273.08C634.667 1353.84 426.933 1365.06 348.942 1273.08Z" fill="#FBD485"/>
<path d="M512.974 267.996C570.369 267.996 627.202 276.208 680.229 292.164C733.255 308.12 781.436 331.507 822.021 360.99C862.605 390.473 894.798 425.474 916.763 463.996C930.939 488.859 940.673 514.875 945.795 541.409C951.117 561.747 953.952 583.091 953.952 605.098C953.952 743.648 841.635 855.965 703.085 855.965C627.085 855.965 558.98 822.169 512.975 768.787C466.97 822.169 398.864 855.965 322.864 855.965C184.314 855.965 71.9962 743.648 71.9961 605.098C71.9961 583.1 74.8282 561.763 80.1465 541.432C85.267 514.89 95.0037 488.866 109.185 463.996C131.149 425.474 163.342 390.473 203.927 360.99C244.511 331.507 292.692 308.12 345.719 292.164C398.745 276.208 455.578 267.996 512.974 267.996Z" fill="url(#paint1_linear_1989_2687)"/>
<ellipse cx="679.288" cy="667.652" rx="101.511" ry="147.652" fill="white"/>
<ellipse cx="670.062" cy="679.397" rx="67.1147" ry="100.672" fill="black"/>
<ellipse cx="330.67" cy="679.933" rx="65.0711" ry="94.6489" fill="white"/>
<ellipse cx="346.264" cy="682.084" rx="43.0222" ry="64.5333" fill="black"/>
<path d="M350.763 164.116L539.401 120.566C647.834 96.0234 615.852 239.729 607.146 414.003C526.437 400.536 484.375 406.746 418.508 457.553C339.064 297.634 268.443 185.667 350.763 164.116Z" fill="#AD00FF"/>
<path d="M750.426 848.799C764.705 901.879 823.793 1011.24 945.906 1024.05" stroke="#AD00FF" stroke-width="59.1556"/>
<path d="M289.318 848.799C281.614 903.223 236.295 1018.97 116.652 1046.56" stroke="#AD00FF" stroke-width="59.1556"/>
<path d="M1117.88 971.502C1117.88 971.502 877.396 908.925 826.641 872.989C775.887 837.054 859.425 697.083 927.141 712.706C994.857 728.328 1136.51 910.292 1136.51 910.292L1117.88 971.502Z" fill="#FFAC00"/>
</g>
<defs>
<linearGradient id="paint0_linear_1989_2687" x1="907.709" y1="952.153" x2="1115.29" y2="956.35" gradientUnits="userSpaceOnUse">
<stop stop-color="#FE8312"/>
<stop offset="1" stop-color="#FFA11D"/>
</linearGradient>
<linearGradient id="paint1_linear_1989_2687" x1="512.974" y1="267.996" x2="512.974" y2="855.965" gradientUnits="userSpaceOnUse">
<stop stop-color="#FFBA2C"/>
<stop offset="1" stop-color="#FFAC00"/>
</linearGradient>
<clipPath id="clip0_1989_2687">
<rect width="1080" height="1080" fill="white"/>
</clipPath>
</defs>
</svg>
