<svg width="48" height="48" viewBox="0 0 48 48" fill="none" xmlns="http://www.w3.org/2000/svg">
<g clip-path="url(#clip0_2151_2663)">
<g filter="url(#filter0_d_2151_2663)">
<path d="M0 24C0 10.7452 10.7452 0 24 0V0C37.2548 0 48 10.7452 48 24V24C48 37.2548 37.2548 48 24 48V48C10.7452 48 0 37.2548 0 24V24Z" fill="white" fill-opacity="0.75" shape-rendering="crispEdges"/>
<path d="M0 24C0 10.7452 10.7452 0 24 0V0C37.2548 0 48 10.7452 48 24V24C48 37.2548 37.2548 48 24 48V48C10.7452 48 0 37.2548 0 24V24Z" fill="white" style="mix-blend-mode:saturation" shape-rendering="crispEdges"/>
<path d="M0 24C0 10.7452 10.7452 0 24 0V0C37.2548 0 48 10.7452 48 24V24C48 37.2548 37.2548 48 24 48V48C10.7452 48 0 37.2548 0 24V24Z" fill="#999999" style="mix-blend-mode:overlay" shape-rendering="crispEdges"/>
<path d="M0 24C0 10.7452 10.7452 0 24 0V0C37.2548 0 48 10.7452 48 24V24C48 37.2548 37.2548 48 24 48V48C10.7452 48 0 37.2548 0 24V24Z" fill="#F2F2F7" style="mix-blend-mode:plus-darker" shape-rendering="crispEdges"/>
</g>
<rect width="48" height="48" rx="24" fill="black" fill-opacity="0.01"/>
<mask id="mask0_2151_2663" style="mask-type:alpha" maskUnits="userSpaceOnUse" x="11" y="21" width="6" height="13">
<path d="M14.9786 21.615C14.9786 21.615 11.5331 28.9674 11.2297 31.0342C10.9263 33.101 15.1384 34.2109 16.1458 32.1858C17.1533 30.1608 16.5357 21.8061 16.5357 21.8061L14.9786 21.615Z" fill="#FFAC00"/>
</mask>
<g mask="url(#mask0_2151_2663)">
<path d="M14.9786 21.615C14.9786 21.615 11.5331 28.9674 11.2297 31.0342C10.9263 33.101 15.1384 34.2109 16.1458 32.1858C17.1533 30.1608 16.5357 21.8061 16.5357 21.8061L14.9786 21.615Z" fill="#FFAC00"/>
</g>
<mask id="mask1_2151_2663" style="mask-type:alpha" maskUnits="userSpaceOnUse" x="27" y="18" width="11" height="10">
<path d="M28.7555 27.9926C28.7555 27.9926 35.8142 23.9754 37.2552 22.4626C38.6962 20.9497 35.8971 17.6136 33.9052 18.6863C31.9132 19.759 27.5941 26.9384 27.5941 26.9384L28.7555 27.9926Z" fill="#FFAC00"/>
</mask>
<g mask="url(#mask1_2151_2663)">
<path d="M28.7555 27.9926C28.7555 27.9926 35.8142 23.9754 37.2552 22.4626C38.6962 20.9497 35.8971 17.6136 33.9052 18.6863C31.9132 19.759 27.5941 26.9384 27.5941 26.9384L28.7555 27.9926Z" fill="#FFAC00"/>
</g>
<path d="M35.988 28.8945C37.2821 28.3979 38.7146 28.9917 39.1867 30.2204C39.4391 30.8775 39.3625 31.5819 39.0419 32.1723C39.7688 32.3842 40.3924 32.9189 40.6848 33.6799C41.1816 34.9736 40.5355 36.4253 39.2414 36.9219C38.894 37.0552 38.5352 37.1037 38.1866 37.0819C38.1671 37.0887 38.1456 37.0917 38.1229 37.0875L38.0181 37.0681C37.9322 37.0569 37.8473 37.0404 37.7634 37.0204L31.6674 35.8836C31.582 35.8677 31.5382 35.7717 31.582 35.6967L34.3658 30.93C34.4702 30.053 35.0705 29.2467 35.988 28.8945Z" fill="#FFE0A0"/>
<path d="M32.533 33.631C33.5441 33.8856 33.8217 35.1907 33.0016 35.8343L29.9988 38.1911C29.2685 38.7643 28.19 38.3731 27.9969 37.465L27.2975 34.176C27.1044 33.2679 27.9304 32.4721 28.8308 32.6988L32.533 33.631Z" fill="url(#paint0_linear_2151_2663)"/>
<path d="M18.3436 38.6141C17.9758 37.3168 15.5615 27.5952 14.7666 21.2389H31.8358C31.8358 21.2389 30.2042 36.7323 28.8236 39.1159C27.443 41.4995 25.6231 41.3113 24.4935 39.1159L23.615 37.0459L22.8619 38.7396C21.7586 41.8308 19.2302 41.7414 18.3436 38.6141Z" fill="#FFA11D"/>
<path d="M19.7235 33.2066C17.9033 31.0609 17.2764 20.298 17.2764 20.298H29.4507C29.4507 20.298 29.0837 31.3227 27.7377 33.2066C26.3918 35.0906 21.5437 35.3523 19.7235 33.2066Z" fill="#FBD485"/>
<path d="M23.5518 9.76001C24.8913 9.76001 26.2185 9.95126 27.4561 10.3235C28.6934 10.6957 29.8176 11.2413 30.7646 11.929C31.7118 12.6167 32.463 13.4337 32.9756 14.3323C33.3049 14.9096 33.5294 15.5141 33.6494 16.1301C33.775 16.6071 33.8438 17.1079 33.8438 17.6243C33.8435 20.8562 31.2217 23.4758 27.9883 23.4758C26.214 23.4758 24.6254 22.6858 23.5518 21.4397C22.4781 22.6857 20.8895 23.4758 19.1152 23.4758C15.8819 23.4757 13.261 20.8561 13.2607 17.6243C13.2607 17.1076 13.3283 16.6063 13.4541 16.1292C13.5741 15.5135 13.7988 14.9093 14.1279 14.3323C14.6405 13.4336 15.3927 12.6167 16.3398 11.929C17.2869 11.2413 18.4111 10.6957 19.6484 10.3235C20.8859 9.9513 22.2124 9.76005 23.5518 9.76001Z" fill="url(#paint1_linear_2151_2663)"/>
<ellipse cx="27.9571" cy="19.1187" rx="1.51866" ry="2.20797" fill="white"/>
<ellipse cx="18.419" cy="19.1187" rx="1.51866" ry="2.20797" fill="white"/>
<ellipse cx="27.9748" cy="19.1188" rx="1.00407" ry="1.50543" fill="black"/>
<ellipse cx="18.4367" cy="19.1188" rx="1.00407" ry="1.50543" fill="black"/>
<path d="M21.0503 7H25.5686C28.1633 7.01117 26.6816 10.1098 25.5686 14.0254C23.804 13.2957 22.8149 13.2161 21.0503 14.0254C20.0833 9.97346 19.0652 7.05787 21.0503 7Z" fill="#AD00FF"/>
<path d="M29.0938 23.3089L28.4275 23.4883C28.6194 24.2017 29.0957 25.2478 29.9169 26.1654C30.7468 27.0929 31.9523 27.9123 33.5839 28.0833L33.656 27.3971L33.728 26.7109C32.5097 26.5832 31.6007 25.9775 30.9453 25.2452C30.2812 24.503 29.9013 23.6544 29.76 23.1295L29.0938 23.3089Z" fill="#AD00FF"/>
<path d="M18.332 23.3089L19.0152 23.4058C18.9117 24.1372 18.5665 25.2335 17.8633 26.2444C17.1526 27.2661 16.056 28.2262 14.4574 28.5947L14.3023 27.9224L14.1471 27.2501C15.3408 26.9749 16.1691 26.2631 16.7303 25.4563C17.299 24.6388 17.5726 23.7502 17.6488 23.212L18.332 23.3089Z" fill="#AD00FF"/>
</g>
<defs>
<filter id="filter0_d_2151_2663" x="-34.9091" y="-27.9273" width="117.818" height="117.818" filterUnits="userSpaceOnUse" color-interpolation-filters="sRGB">
<feFlood flood-opacity="0" result="BackgroundImageFix"/>
<feColorMatrix in="SourceAlpha" type="matrix" values="0 0 0 0 0 0 0 0 0 0 0 0 0 0 0 0 0 0 127 0" result="hardAlpha"/>
<feOffset dy="6.98182"/>
<feGaussianBlur stdDeviation="17.4545"/>
<feComposite in2="hardAlpha" operator="out"/>
<feColorMatrix type="matrix" values="0 0 0 0 0 0 0 0 0 0 0 0 0 0 0 0 0 0 0.12 0"/>
<feBlend mode="normal" in2="BackgroundImageFix" result="effect1_dropShadow_2151_2663"/>
<feBlend mode="normal" in="SourceGraphic" in2="effect1_dropShadow_2151_2663" result="shape"/>
</filter>
<linearGradient id="paint0_linear_2151_2663" x1="32.7765" y1="35.3523" x2="27.1291" y2="37.1101" gradientUnits="userSpaceOnUse">
<stop stop-color="#FFA11D"/>
<stop offset="0.813718" stop-color="#FD700B"/>
</linearGradient>
<linearGradient id="paint1_linear_2151_2663" x1="23.5523" y1="9.76001" x2="23.5523" y2="23.4756" gradientUnits="userSpaceOnUse">
<stop stop-color="#FFBA2C"/>
<stop offset="1" stop-color="#FFAC00"/>
</linearGradient>
<clipPath id="clip0_2151_2663">
<rect width="48" height="48" rx="24" fill="white"/>
</clipPath>
</defs>
</svg>
