<svg width="397" height="380" viewBox="0 0 397 380" fill="none" xmlns="http://www.w3.org/2000/svg">
<rect width="207.6" height="241.8" rx="14.4" fill="#C64DFF"/>
<rect x="21.5996" y="28.8" width="163" height="17" rx="3" fill="#E6B2FF"/>
<rect x="21.5996" y="53.8" width="118" height="15" rx="3" fill="#E6B2FF"/>
<rect x="21.5996" y="76.8" width="163" height="16" rx="3" fill="#E6B2FF"/>
<circle cx="31.4996" cy="114.7" r="9.3" stroke="#E6B2FF" stroke-width="1.2"/>
<rect x="48.5996" y="109.2" width="118" height="11" rx="3" fill="#DE99FF"/>
<rect x="21.5996" y="131.8" width="19.8" height="19.8" rx="9.9" fill="#AD00FF"/>
<path d="M30.1143 146.343C29.8623 146.343 29.6807 146.232 29.5049 146.004L26.4639 142.13C26.3525 141.99 26.2939 141.837 26.2939 141.703C26.2939 141.38 26.5225 141.152 26.8564 141.152C27.0674 141.152 27.2139 141.234 27.3604 141.439L30.0908 145.013L35.3525 136.629C35.4932 136.406 35.6221 136.33 35.8564 136.33C36.1787 136.33 36.3896 136.541 36.3896 136.863C36.3896 136.998 36.3486 137.127 36.2432 137.296L30.7061 146.015C30.5654 146.232 30.3662 146.343 30.1143 146.343Z" fill="#F7E5FF"/>
<rect x="48.5996" y="136.2" width="118" height="11" rx="3" fill="#DE99FF"/>
<circle cx="31.4996" cy="168.7" r="9.3" stroke="#E6B2FF" stroke-width="1.2"/>
<rect x="48.5996" y="163.2" width="118" height="11" rx="3" fill="#DE99FF"/>
<rect x="100.2" y="190.6" width="85.8" height="29.6" rx="14.8" fill="#AD00FF"/>
<path d="M100.2 205.6C100.2 197.316 106.916 190.6 115.2 190.6H171.2C179.484 190.6 186.2 197.316 186.2 205.6V205.6C186.2 213.884 179.484 220.6 171.2 220.6H115.2C106.916 220.6 100.2 213.884 100.2 205.6V205.6Z" fill="#DE99FF"/>
<mask id="mask0_2221_3296" style="mask-type:alpha" maskUnits="userSpaceOnUse" x="106" y="193" width="53" height="113">
<path d="M142.044 193.798C142.044 193.798 109.101 264.127 106.2 283.896C103.299 303.665 143.572 314.282 153.204 294.912C162.837 275.541 156.932 195.626 156.932 195.626L142.044 193.798Z" fill="#FFAC00"/>
</mask>
<g mask="url(#mask0_2221_3296)">
<path d="M142.044 193.798C142.044 193.798 109.101 264.127 106.2 283.896C103.299 303.665 143.572 314.282 153.204 294.912C162.837 275.541 156.932 195.626 156.932 195.626L142.044 193.798Z" fill="#FFAC00"/>
</g>
<mask id="mask1_2221_3296" style="mask-type:alpha" maskUnits="userSpaceOnUse" x="262" y="163" width="97" height="92">
<path d="M273.738 254.802C273.738 254.802 341.227 216.376 355.004 201.905C368.782 187.434 342.019 155.523 322.974 165.784C303.929 176.044 262.634 244.718 262.634 244.718L273.738 254.802Z" fill="#FFAC00"/>
</mask>
<g mask="url(#mask1_2221_3296)">
<path d="M273.738 254.802C273.738 254.802 341.227 216.376 355.004 201.905C368.782 187.434 342.019 155.523 322.974 165.784C303.929 176.044 262.634 244.718 262.634 244.718L273.738 254.802Z" fill="#FFAC00"/>
</g>
<path d="M342.902 263.43C355.276 258.68 368.966 264.36 373.479 276.116C375.888 282.392 375.193 289.13 372.14 294.771C379.078 296.805 385.022 301.936 387.813 309.206C392.563 321.581 386.382 335.463 374.008 340.213C370.675 341.492 367.232 341.977 363.888 341.763C363.711 341.818 363.517 341.836 363.314 341.798L362.31 341.61C361.458 341.499 360.615 341.341 359.784 341.14L301.595 330.28C300.779 330.128 300.359 329.212 300.778 328.495L327.365 282.964C328.341 274.547 334.104 266.807 342.902 263.43Z" fill="#FFE0A0"/>
<path d="M309.873 308.735C319.541 311.171 322.194 323.652 314.352 329.81L285.649 352.348C278.664 357.833 268.347 354.092 266.5 345.404L259.815 313.952C257.968 305.264 265.872 297.651 274.484 299.82L309.873 308.735Z" fill="url(#paint0_linear_2221_3296)"/>
<path d="M174.198 356.4C170.682 343.991 147.598 251 139.998 190.2H303.198C303.198 190.2 287.598 338.4 274.398 361.2C261.198 384 243.798 382.2 232.998 361.2L224.598 341.4L217.398 357.6C206.849 387.169 182.674 386.313 174.198 356.4Z" fill="#FFA11D"/>
<path d="M187.395 304.676C169.992 284.151 163.998 181.2 163.998 181.2H280.398C280.398 181.2 276.889 286.655 264.02 304.676C251.152 322.696 204.798 325.2 187.395 304.676Z" fill="#FBD485"/>
<path d="M223.999 80.4C236.806 80.4 249.488 82.2322 261.32 85.7925C273.153 89.353 283.904 94.5721 292.96 101.151C302.016 107.73 309.199 115.54 314.101 124.135C317.265 129.686 319.437 135.494 320.579 141.418C321.765 145.954 322.398 150.714 322.398 155.622C322.398 186.538 297.336 211.6 266.42 211.6C249.461 211.6 234.264 204.058 223.998 192.146C213.732 204.058 198.536 211.6 181.577 211.6C150.661 211.6 125.599 186.538 125.599 155.622C125.599 150.709 126.232 145.943 127.421 141.403C128.564 135.484 130.735 129.681 133.897 124.135C138.799 115.54 145.982 107.73 155.038 101.151C164.094 94.5721 174.845 89.353 186.678 85.7925C198.51 82.2321 211.192 80.4 223.999 80.4Z" fill="url(#paint1_linear_2221_3296)"/>
<ellipse cx="266.119" cy="169.92" rx="14.52" ry="21.12" fill="white"/>
<ellipse cx="174.918" cy="169.92" rx="14.52" ry="21.12" fill="white"/>
<ellipse cx="266.298" cy="169.92" rx="9.6" ry="14.4" fill="black"/>
<ellipse cx="175.098" cy="169.92" rx="9.6" ry="14.4" fill="black"/>
<path d="M200.081 54H243.281C268.089 54.1068 253.922 83.7462 243.281 121.2C226.409 114.221 216.952 113.46 200.081 121.2C190.835 82.4422 181.101 54.5536 200.081 54Z" fill="#AD00FF"/>
<path d="M276.984 210C280.171 221.844 293.356 246.247 320.604 249.105" stroke="#AD00FF" stroke-width="13.2"/>
<path d="M174.092 210C172.373 222.144 162.26 247.972 135.563 254.129" stroke="#AD00FF" stroke-width="13.2"/>
<defs>
<linearGradient id="paint0_linear_2221_3296" x1="312.199" y1="325.2" x2="258.199" y2="342" gradientUnits="userSpaceOnUse">
<stop stop-color="#FFA11D"/>
<stop offset="0.813718" stop-color="#FD700B"/>
</linearGradient>
<linearGradient id="paint1_linear_2221_3296" x1="223.999" y1="80.4" x2="223.999" y2="211.6" gradientUnits="userSpaceOnUse">
<stop stop-color="#FFBA2C"/>
<stop offset="1" stop-color="#FFAC00"/>
</linearGradient>
</defs>
</svg>
